<?xml version="1.0" standalone="no"?><!DOCTYPE svg PUBLIC "-//W3C//DTD SVG 1.1//EN" "http://www.w3.org/Graphics/SVG/1.1/DTD/svg11.dtd"><svg t="1557209942684" class="icon" style="" viewBox="0 0 1024 1024" version="1.1" xmlns="http://www.w3.org/2000/svg" p-id="1532" xmlns:xlink="http://www.w3.org/1999/xlink" width="200" height="200"><defs><style type="text/css"></style></defs><path d="M325.781832 1017.09388c1.70937-74.598914-22.636485-115.331812-60.486976-124.920914-14.82671-8.705015-31.471274-14.806433-53.154729-19.327242l-10.096033-1.829006c-12.34275-2.076388-24.903479-3.408602-37.512874-4.748927-16.58576-1.738772-32.207338-3.42888-47.62006-6.767525l-7.999367-1.520792c-18.831463-3.42888-28.002854-5.981783-30.875124-13.653673-3.984476-11.47894 0.506931-23.182957 8.486021-41.200289l3.46842-8.028769c7.096016-16.645578 12.779724-34.860613 6.359953-54.784005-1.807715-5.644167-4.570488-11.109894-8.187945-16.317086a45.998895 45.998895 0 0 0 8.187945-8.367399c15.820294-23.748691-1.430559-43.008004-7.88987-50.241906-0.426836-0.496792-0.933766-1.034139-1.341339-1.471113 0.86381-1.29166 1.699232-2.593458 2.564056-3.885117 9.896302-15.055843 19.695273-33.76767 17.151495-58.312243-0.079081-0.805006-0.37817-2.275105-0.51707-3.140942-6.577933-29.452676-30.298236-38.7143-45.959354-44.875537-7.850329-3.060848-15.243407-5.933117-18.653024-9.569839-0.73505-0.904364-1.439683-2.882408-1.439683-4.660721l90.647327-96.491224a4577.743743 4577.743743 0 0 0 37.224938-40.075917 21.730093 21.730093 0 0 0 3.984475-6.250456l4.282551-10.464064c9.271763-23.898743-0.496792-42.183734-7.62221-55.578872l-3.209886-6.221054c-1.103081-2.245703-2.175747-4.542099-2.871255-6.916563-0.715786-2.494099-0.93478-4.620167-0.983446-4.710401 4.46099-20.946378 11.209252-41.567307 20.589499-63.031768 7.870607-18.0954 17.639162-36.538554 28.957911-54.83267 10.403233-16.804754 22.040335-33.469595 35.63419-51.098618 10.46305-13.563439 21.38538-26.829816 30.736224-37.909295 10.880761-9.718876 22.735844-18.989625 35.197215-27.546616 5.217331-3.547501 10.564437-6.95509 15.959194-10.284611 7.075739-4.292689 14.191019-8.337997 21.484738-12.103478 22.42763-11.596548 46.675141-21.325562 72.143341-28.828137 47.828915-14.220421 100.00831-21.017348 153.579737-20.152525 68.835111 5.535684 126.053397 16.575621 174.915437 33.756518a494.062808 494.062808 0 0 1 24.157278 9.172405c10.465078 4.42145 20.809507 9.201807 30.914664 14.408999 21.702719 11.228516 41.986031 24.276913 60.845882 39.241508 5.04903 3.716816 9.856761 7.532991 14.449554 11.49719a239.55012 239.55012 0 0 1 21.22519 20.630053c9.162266 10.126448 17.758798 21.38538 25.508755 33.528399 23.70104 37.056637 39.719037 81.842954 48.989786 136.904757 0.955058 5.525545 1.769188 11.061229 2.534654 16.436722l2.504238 22.98424c3.765482 44.181042 1.242994 84.596602-7.55124 120.171987-0.993584 4.054432-2.096666 7.958813-3.249426 11.934163-1.620151 5.385632-3.370076 10.791542-5.942242 18.036596-5.357244 20.082568-13.784461 40.373992-25.828122 61.948964-3.269703 5.852008-6.73711 11.605672-10.285624 17.279241-2.989877 4.780357-6.021323 9.560714-9.201807 14.310654-8.911842 13.256239-18.472556 26.264082-28.300929 39.172566-6.399494 8.496159-12.987566 16.903099-19.516834 25.399258-19.247146 24.832509-39.211093 50.520717-56.354476 77.322146-15.461388 24.028517-27.027519 46.426745-35.415195 68.447816-6.38023 16.505665-11.040951 33.219171-14.131202 51.722143-0.654955 9.511035-1.212578 21.81323-1.678954 35.684882-0.914503 25.697333-1.629275 56.692092-2.185885 84.069394l-0.169315 9.023367c-0.308214 15.512081 3.874979 37.03636 3.695525 37.03636" fill="#EBEEF0" p-id="1533"></path><path d="M416.20104 224.619195c6.279858 0 12.381276 0.655968 18.373198 1.699232 7.801664-69.540759 66.729321-123.618102 138.37587-123.618102 59.782342 0 110.59201 37.711591 130.39678 90.568246 8.436341-2.186899 17.240714-3.488697 26.372564-3.488698 57.696829 0 104.490591 46.803901 104.490592 104.508841 0 14.021704-2.792175 27.347899-7.780373 39.540598 34.760241 11.418108 60.039863 43.764344 60.039863 82.3803 0 48.105699-38.982974 87.090701-87.079549 87.090701-57.735356 0-121.930023 46.793763-121.930023 104.498703v-104.498703c0-38.478071-31.202601-69.671547-69.669519-69.671547H416.20104c-57.695815 0-104.490591-46.793763-104.490591-104.498702 0-57.726231 46.794776-104.510869 104.490591-104.510869z" fill="#FFAB00" p-id="1534"></path><path d="M989.777963 347.742533l-2.534654-23.004517c-0.773576-5.436325-1.589735-11.010536-2.534654-16.525942-9.509007-56.394017-26.065365-102.462869-50.619062-140.850706-8.119003-12.68949-17.160619-24.565864-26.909911-35.346252a254.288625 254.288625 0 0 0-22.438782-21.81323c-4.859438-4.193331-9.966258-8.247763-14.696936-11.695906-19.099122-15.183589-40.146887-28.758181-62.565392-40.364867-10.294749-5.306551-20.836881-10.186266-31.649714-14.746615A484.818419 484.818419 0 0 0 751.302535 34.083194C702.094769 16.782662 644.736569 5.672768 574.630076 0.068142c-54.694785-0.834408-107.033356 6.012199-155.566905 20.450599-25.916327 7.642488-50.74985 17.570219-73.784783 29.484106-7.542116 3.874979-14.885514 8.049046-22.259328 12.541467A432.276062 432.276062 0 0 0 306.622892 73.105709c-12.86793 8.82465-25.080905 18.393475-36.300297 28.420564a19.948738 19.948738 0 0 0-1.966891 2.027723c-9.312318 11.000397-20.133261 24.157277-30.508105 37.612233-13.732754 17.787186-25.4682 34.621342-35.8836 51.454484-11.62595 18.78077-21.56382 37.612233-29.513507 55.926627-9.708737 22.200525-16.67498 43.555489-21.305285 65.268346-0.537347 2.534654-0.586012 5.127097-0.159177 7.650599a53.315933 53.315933 0 0 0 1.500515 6.966242c1.003723 3.3792 2.454559 6.658028 4.223747 10.275486l3.278828 6.359953c7.264317 13.633395 11.626963 23.581404 6.51913 36.757548l-4.194345 10.215668c-11.903748 12.958164-23.898743 25.89605-36.091441 38.844075L37.990155 524.79519A20.363408 20.363408 0 0 0 32.474749 538.725647c0 6.279858 2.216301 12.769585 6.926701 18.492833 6.458298 6.876009 15.719922 10.484342 25.627377 14.350196 16.505665 6.488713 28.480383 12.372152 32.355361 29.851123 1.809743 17.458695-5.405909 31.222878-13.325181 43.296955l-2.543779 3.845576c-5.167652 7.710417-3.120666 19.40835 3.069973 26.334038 10.602963 11.88347 10.304888 17.409015 6.658028 22.964976a24.899424 24.899424 0 0 1-4.46099 4.570488c-8.417078 6.678306-10.176128 18.752382-4.035169 27.566893 2.384602 3.416713 4.163929 6.944951 5.306551 10.483328 3.974337 12.321459 0.655968 24.545586-5.525545 39.023528l-3.278828 7.621197c-7.721569 17.389752-15.700659 35.375655-8.715153 55.498777 7.185236 19.200509 27.5162 22.896034 45.284122 26.126197l7.303858 1.380879c16.58576 3.597181 33.558815 5.376507 48.682587 6.956104 11.805403 1.252119 23.552002 2.483961 34.839322 4.392048l9.331581 1.689093c18.860865 3.925672 32.92211 8.992951 45.583212 16.435708a19.891962 19.891962 0 0 0 5.3248 2.186899c39.639956 10.037229 44.2804 67.831388 43.515949 101.390203-0.258535 11.239668 8.635058 20.560097 19.873712 20.80748 0.159176 0.010139 0.318353 0.010139 0.477529 0.010138 11.020674 0 20.083582-8.804373 20.330964-19.882837 2.3552-102.910995-42.362174-132.573541-71.32921-140.990619-15.809142-8.921981-33.558815-15.243407-55.985431-19.904128l-10.086907-1.827993c-12.372152-2.088555-24.942006-3.438004-37.791687-4.800634-17.410029-1.817854-30.765627-3.338646-44.637279-6.339675l-7.97909-1.519779c-2.863145-0.517069-10.246084-1.859422-14.677673-3.160206 0.506931-4.998337 3.895256-12.997704 7.948674-22.140707l3.398464-7.88987c8.070337-18.90953 15.184603-41.725469 6.857759-67.55359a76.674288 76.674288 0 0 0-2.435295-6.498852c9.739153-14.617855 16.566497-36.847782-0.993584-62.982089 9.093324-15.670243 17.132231-35.902863 14.498219-61.26258-0.108483-1.143636-0.466376-3.160206-0.903351-5.385632-8.029783-36.102593-35.357405-49.427775-52.985415-56.563332l71.895959-76.526264a4417.907467 4417.907467 0 0 0 36.430071-39.223259c3.249426-3.547501 5.822606-7.601933 7.690139-12.103478l4.312967-10.534021c12.392429-31.936637-0.615414-56.372726-8.306567-70.812141l-2.901672-5.623889c-0.368032-0.746202-0.755327-1.490376-1.162899-2.623874 4.04328-17.499249 9.887177-34.879876 17.826727-53.035094 7.194361-16.574607 16.208603-33.657159 26.811566-50.769113 9.668183-15.630702 20.618901-31.342514 33.487845-48.01648 9.64892-12.490773 19.686148-24.734165 28.430703-35.088732 9.64892-8.536714 20.122109-16.704382 31.053564-24.206956a400.796677 400.796677 0 0 1 14.707074-9.469466c6.468436-3.93581 12.977427-7.632349 19.686148-11.090631 20.778077-10.752001 43.196582-19.705412 66.678628-26.632113 44.597739-13.265364 92.742979-19.575637 142.052132-18.840588 65.257194 5.256872 119.276747 15.65098 165.186422 31.798751a432.970557 432.970557 0 0 1 22.309008 8.466757c9.698599 4.093973 19.287701 8.516436 28.630434 13.336334 20.063305 10.383969 38.882601 22.517863 56.553194 36.548693a206.310672 206.310672 0 0 1 12.8365 10.195391 214.499631 214.499631 0 0 1 18.831463 18.304255c8.208223 9.073046 15.880112 19.148802 22.786536 29.951495 21.544556 33.677437 36.182688 74.787492 44.76604 125.725921 0.89524 5.197054 1.649553 10.373831 2.287272 14.786155l2.403865 21.872034c3.477545 40.781564 1.182162 77.917282-6.837482 110.362877-0.902337 3.667137-1.90606 7.214638-2.910796 10.661767-1.480238 4.949672-3.081125 9.917593-5.942242 18.156232-4.809759 18.026457-12.411692 36.221215-23.27319 55.658967-3.00103 5.405909-6.190638 10.682045-9.439051 15.889237-2.812452 4.471129-5.644167 8.952397-8.616808 13.375875-7.631335 11.336999-16.15791 23.133277-26.930189 37.234062-4.331216 5.763802-8.754694 11.487051-13.186282 17.221451l-6.419771 8.307581c-18.770631 24.217095-38.178982 49.25846-55.091205 75.712134-15.791906 24.535448-27.695654 47.559228-36.340851 70.296085-6.857759 17.717229-11.707058 35.49529-15.07612 56.274382-0.654955 9.450203-1.211564 21.663178-1.677941 35.415195-0.89524 25.122474-1.590749 55.400433-2.13722 82.191722l-0.158162 8.755708c-0.269687 13.851375 2.473822 30.893373 3.755343 38.891726l20.193079-2.443406-15.373182-13.336334 30.864985 26.532755c6.121696-7.193347 4.910131-14.75574 4.253149-18.820311-0.794867-4.898979-3.200761-19.835186-2.990891-30.060993l0.159176-8.744555c0.527208-26.532755 1.221703-56.59172 2.116943-81.555017 0.446099-13.215684 0.963168-24.930854 1.371754-32.066411 2.683691-16.089982 6.825315-31.253294 12.698615-46.45716 7.67189-20.162663 18.325546-40.72276 32.594633-62.891856 15.95818-24.953159 34.789643-49.249335 53.839086-73.824323l5.626931-7.293719c4.529933-5.863161 9.050741-11.716183 13.413387-17.500263 11.189989-14.657395 20.161649-27.088351 28.280653-39.133026 3.209885-4.788468 6.261608-9.608365 9.321442-14.477941 3.636721-5.833759 7.185236-11.716183 10.503605-17.677689 12.511051-22.399242 21.354964-43.654847 26.553032-63.400814 2.663414-7.451882 4.441727-13.017981 6.140959-18.701689 1.20244-4.123375 2.344048-8.208223 3.388325-12.420817 9.093324-36.778839 11.746599-78.366423 7.841205-124.076367z" fill="#43525B" p-id="1535"></path><path d="M896.855531 418.763529c0-38.49632-21.027487-73.168355-53.940473-91.443208a121.511298 121.511298 0 0 0 3.081125-27.247527c0-71.776323-62.248053-129.888835-135.634388-121.263916-26.322886-51.802238-80.213678-85.569909-139.030824-85.569908-72.690826 0-134.629652 49.795806-151.433392 118.700874-67.423816-0.547485-123.211544 54.366294-123.211544 122.048644 0 67.315333 54.763728 122.07906 122.068922 122.079061h186.481569c26.183986 0 47.480147 21.286022 47.480147 47.459869V605.245099c0 11.238654 9.111573 20.352255 20.350228 20.352255 11.239668 0 20.353269-9.113601 20.353269-20.352255 0-45.075267 53.780282-81.365425 98.308064-81.365426 57.964488 0 105.127296-47.15267 105.127297-105.117157zM693.42017 521.584291v-18.056873c0-48.61263-39.560875-88.162352-88.183644-88.162352H418.755971c-44.866412 0-81.366439-36.509152-81.366439-81.376578 0-44.856273 36.499013-81.3563 81.366439-81.3563 4.561363 0 9.251486 0.437988 14.349182 1.332214a20.368477 20.368477 0 0 0 15.720936-3.746218 20.3482 20.3482 0 0 0 8.029783-14.021704c6.547517-58.291966 55.757312-102.254013 114.475099-102.254014 47.719418 0 91.065038 30.119797 107.858639 74.946668 3.667137 9.748278 14.082536 15.13391 24.158291 12.570869 7.153807-1.848269 13.881791-2.752634 20.570236-2.752634 44.866412 0 81.375564 36.499013 81.375564 81.365425 0 10.5837-2.048 20.947392-6.071003 30.815306a20.350228 20.350228 0 0 0 0.366004 16.227867 20.330964 20.330964 0 0 0 12.125783 10.80168c26.58142 8.725292 44.438562 33.180645 44.438563 60.845882 0 35.515568-28.898094 64.412647-64.4238 64.412648-34.572676 0-71.28967 14.48808-98.308064 38.408114z" fill="#43525B" p-id="1536"></path><path d="M571.330971 296.694608h33.905555v40.703496h-33.905555zM503.518846 296.694608h33.895417v40.703496h-33.895417zM639.15222 296.694608h33.914681v40.703496h-33.914681z" fill="#43525B" p-id="1537"></path></svg>